<?xml version="1.0" encoding="UTF-8"?><svg xmlns="http://www.w3.org/2000/svg" viewBox="0 0 172.18 172.19"><path d="M87.99,66.56c-.63.4-1.28.76-1.94,1.1.67-.33,1.32-.7,1.96-1.1.28-.17.55-.34.82-.53-.28.18-.56.36-.84.53Z" style="fill:#7ac943;"/><path d="M96.88,140.61c-32.24,6.35-62.88-16.38-66.12-49.15-2.77-28.1,16.46-54.17,44.13-59.81,2.77-.57,5.54-.92,8.27-1.06,9.91-.53,17.33,7.46,17.33,16.31,0,.41-.02.82-.05,1.23-4.48-1.73-9.29-2.61-14.3-2.61-5.5,0-10.78,1.06-15.69,3.15-4.88,2.07-9.19,4.94-12.82,8.52-3.66,3.61-6.56,7.92-8.64,12.8-2.08,4.91-3.14,10.19-3.14,15.69,0,6.57,1.05,12.46,3.12,17.49,2.08,5.03,4.84,9.3,8.23,12.68,3.42,3.43,7.4,6.02,11.83,7.73,4.34,1.67,8.81,2.53,13.27,2.53s8.57-.79,12.59-2.34c.69-.27,1.37-.56,2.05-.87,2.84-1.3,5.45-2.99,7.81-5.05l3.44,4.31c2.62,3.27,5.73,3.95,7.89,3.95,2.77,0,5.27-1.02,7.22-2.96,1.97-1.96,3-4.47,3-7.26v-30.07c0-5.61-1.07-10.91-3.16-15.78-.34-.79-.71-1.57-1.1-2.32,9.12-2.24,18.62,4.08,19.43,13.91.01.2.03.39.04.59,1.99,27.75-17.33,53.01-44.63,58.39Z" style="fill:#0a0a0a;"/><path d="M158.69,49.78h0c-2.37,1.13-3.39,3.92-2.35,6.34,2.5,5.83,4.29,12.06,5.28,18.62,6.55,43.55-25.25,84.2-70,87.53-37.34,2.78-71.64-22.54-79.96-59.05C1.68,59.47,31.18,17.11,74.72,10.56c13.92-2.09,27.54-.27,39.76,4.64,2.19.88,4.9-.09,6.02-2.16.02-.03.03-.06.05-.09,1.41-2.58.34-5.63-2.39-6.73C104.38.67,89-1.4,73.28.96,24.19,8.35-9.05,56.08,2.19,105.39c9.38,41.15,48.04,69.7,90.12,66.56,50.44-3.76,86.28-49.57,78.9-98.66-1.12-7.42-3.16-14.48-5.98-21.07-1.08-2.52-4.06-3.61-6.54-2.44Z" style="fill:#0a0a0a;"/><path d="M87.99,66.56h.02c.28-.17.55-.34.82-.53-.28.18-.56.36-.84.53Z" style="fill:#fff;"/><path d="M88.83,66.03c-.27.19-.54.36-.82.53h-.02c.28-.17.56-.35.84-.53Z" style="fill:#fff;"/><path d="M87.99,66.56h.02c.28-.17.55-.34.82-.53-.28.18-.56.36-.84.53Z"/><path d="M121.3,85.82v30.07c0,1.47-.5,2.7-1.51,3.71-1.01,1-2.25,1.51-3.71,1.51-1.56,0-2.88-.69-3.98-2.06l-5.15-6.46-1.86-2.33c-2.83,3.57-6.24,6.27-10.23,8.1-.59.27-1.18.52-1.77.75-3.45,1.33-7.05,2-10.79,2s-7.67-.73-11.47-2.2c-3.8-1.46-7.16-3.66-10.09-6.59-2.93-2.93-5.31-6.61-7.14-11.05-1.83-4.44-2.75-9.64-2.75-15.59,0-4.85.92-9.43,2.75-13.73,1.83-4.31,4.35-8.04,7.55-11.2,3.2-3.16,6.96-5.65,11.26-7.48,4.3-1.83,8.88-2.75,13.73-2.75s9.01.84,13.11,2.52c-.22.55-.48,1.1-.78,1.65-.43.79-.85,1.56-1.27,2.33-.46.84-.97,1.64-1.51,2.41-.26.36-.52.72-.8,1.06-.27.35-.56.69-.85,1.02-.29.33-.59.65-.89.97-.31.31-.62.62-.94.92-.33.29-.66.58-1,.86-.76.64-1.56,1.22-2.38,1.77-.28.18-.56.36-.84.53-.63.4-1.28.76-1.94,1.1-1.56.79-3.2,1.44-4.9,1.94-.07.02-.13.04-.2.06-7.35,2.26-12.4,9.36-12.1,17.05.38,9.51,8.2,16.59,17.2,16.59,1.66,0,3.36-.24,5.06-.75,1.9-.57,3.7-1.57,5.3-2.89.53-.44,1.05-.91,1.53-1.41,3.49-3.6,5.66-8.68,5.3-13.42,0-.07-.01-.13-.01-.19-.09-.98-.04-1.95.14-2.89.66-3.79,3.26-7.09,6.85-8.79l5.68-2.69,1.48-.7c.42.79.81,1.61,1.17,2.45,1.83,4.25,2.75,8.85,2.75,13.8Z" style="fill:#0a0a0a;"/><path d="M118.83,29.92l-8.18,23.22c-1.12,3.18,2,6.22,5.15,5l23.58-9.1c2.74-1.06,3.41-4.62,1.25-6.6l-15.4-14.12c-2.09-1.92-5.46-1.07-6.4,1.6Z" style="fill:#0a0a0a;"/></svg>