<?xml version="1.0" encoding="UTF-8"?><svg id="b" xmlns="http://www.w3.org/2000/svg" viewBox="0 0 300 300"><g id="c"><path d="M164.16,0h135.84v300H0v-135.84C0,73.56,73.56,0,164.16,0Z" style="fill:#fff;"/><g id="d"><path d="M184.39,203.3l-8.55-13.61-8.95-14.24,10.69-17,12.33-19.63,15.34-24.41h-35.7l-6.62,10.55-13.59,21.67-10.47,16.71-6.24,9.94c-1.12,1.61-1.12,3.06,0,4.34l4.86,7.75,23.21,37.02,8.84,14.09h35.27c.08-.09.17-.19.25-.28l-8.63-13.74-12.05-19.17ZM178.03,209.22c-.18.17.16-.29,0,0h0Z"/><rect x="94.76" y="63.52" width="30.88" height="172.97"/></g></g></svg>