<?xml version="1.0" encoding="UTF-8"?><svg xmlns="http://www.w3.org/2000/svg" viewBox="0 0 810.91 796.52" fill="#000000"><path d="M706.27,30.95c-9.55,2.96-26.12,19.6-34.26,27.3-18.95,17.91-27.32,49.67-54.58,30.04-35.56-25.6-53.25-82.74-105.1-45.62-18.14,12.98-76.17,83.28-87.77,86.32-15.8,4.13-43.73-45.2-63.15-45.3-4.06-.02-8.36,2.31-12.22,6.08,12.16,7.11,20.34,20.31,20.34,35.42v35.35c10.55,10.11,20.32,19.3,21.92,20.45,33.99,24.64,47.25,7.97,75.53-17,15.85-14,43.86-35.96,55.45-54.08,3.69-5.76,7.74-9.65,9.82-11.3,14.18-11.23,21.38-.19,33.25,12.72,12.76,13.87,13.19,35.06.92,49.36-21.18,24.66-41.52,46.98-24.33,84.22h37.8c14.92,0,28.67,8.11,35.88,21.17,6.84,12.37,6.8,27.34.01,39.62,4.56,1.26,9.32,1.89,14.2,1.93,4.52.04,8.98-1.01,13.17-2.71,7.94-3.21,15.82-6.49,23.25-11.17,9.9-6.26,120.38-119.89,129.36-132.17,43.5-59.54-12.93-154.34-89.49-130.63ZM748.74,139.58l-96.93,97c-10.57,10.58-26.7,14.32-40.3,8.1-15.79-7.21-23.91-24.64-10.09-44.37,13.52-19.33,73.15-78.2,93-96.65,32.03-29.75,59.86-32.26,64.9,5.08,1.53,11.34-2.49,22.75-10.58,30.84Z"/><path d="M401.26,793.03c-30.03,1.55-75.18-76.33-96.18-78.39-17.53-1.72-56.05,55.82-81.02,65.23-13.96,5.25-34.9,5.73-49.19,1.47-17.32-5.16-133.8-120.92-150.71-141.76-27.94-34.45-33.7-65.32-6.36-102.53,24.99-34,73.25-67.67,114.55-39.86l57.68,57.42v73.99c-1.3-1.48-2.39-2.67-3.12-3.37-17.73-16.95-41.75-37.7-60.39-58.2-3.81-4.18-13.06-18.04-22.05-22.14-25.46-11.63-63.92,28.74-48.12,57.01l120.33,120.31c18.02,11.82,34.13,3.85,49.05-10.22,1.73.22,3.5.34,5.3.34h97.5c14.21,0,26.74-7.23,34.1-18.23,19.66,20.42,56.97,56.23,61.65,66.64,6.59,14.63-8.15,31.53-23.02,32.29Z"/><path d="M687.6,565.28c-16,23.54-49.02,50.12-78.11,76.11l-26.65-42.41c16.4-15.22,29.57-28.24,32.22-34.07,9.15-20.16-2.09-45.26,20.02-58.83,18.93-11.63,29.03-12.43,46.87.07,19.85,13.91,18.46,40.27,5.65,59.13Z"/><path d="M774.17,651.52c-1.84,7.95-38.28,43.71-46.39,52.17-14.75,15.38-72.5,74.98-88.12,83.27-22.71,12.06-50.4,12.75-73.52,1.82-5.57-2.63-65.2-61.01-69.8-67.49-2.33-3.28-4.1-6.24-5.37-8.96h71.86c11.95,16.14,37.73,38.6,48.96,29.28,30.51-16.93,113.4-126.18,142.55-123.3,13.45,1.33,22.74,20.64,19.83,33.21Z"/><path d="M212.04,55.39c-7.38,4.25-35.38-.67-47.23.77-29.53,3.6-87.13,83.55-111.6,104.06,4.03,32.88-6.27,81.57,0,112.18,1.89,9.28,75.36,61.8,76.49,84.41.9,18.08-14.02,31.83-32.05,27.67-5.3-1.22-72.89-65.18-79.21-74.05-4.15-5.81-11.75-14.46-13.59-20.83-4.96-17.17-4.63-128.61.05-146.55,2.04-7.83,8.76-16.35,13.74-22.82C30.49,104.84,110.72,24.02,124.54,15.91c17.2-10.1,83.37-16.79,96.48-4.14,9.43,9.11-2.61,39.95-8.98,43.62Z"/><path d="M493.97,585.24c-.57.53.49-.91,0,0h0Z"/><path d="M551.87,431.34c-5.6,25.37,5.98,69.04-1.08,94.07-.78,2.76-3.41,6.66-7.16,11.18l-36.43-57.97,57-90.69c1.03,4.24,1.63,9.26,1.61,15.17-.08,23.44-13.18,24.78-13.94,28.24Z"/><path d="M190.03,287.47v48.17c-8.77-2.89-13.81-11.56-13.51-24.16.17-7.06,7.25-17.73,12.23-22.73l1.28-1.28Z"/><path d="M440.22,255c-3,2.61-5.63,5.67-7.8,9.13l-31.39,50.06c-35.09-12.11-26.84-70.36,10.93-74.03,7.03-.68,20.9,11.73,28.26,14.84Z"/><path d="M320.6,63.59c-5.79,6.89-12.46,13.78-19.57,20.6h-70c-1.18,0-2.36.05-3.51.15.23-.27.48-.54.73-.81,24.64-25.99,48.83-53.8,76.31-77.41,5.98-5.14,14.06-7.27,21.75-5.52,37.3,8.5,14.38,39.12-5.71,62.99Z"/><path d="M739.89,429.76c-9.38-11.63-3.69-27.81-6.95-41.07-4.27-17.38-23.41-28.96-6.22-49.36,16.9-20.06,46.83,1.99,54.03,19.82,5.26,13.02,6.71,59.56-.77,69.99-9.52,13.26-30.01,13.12-40.09.62Z"/><path d="M115.28,216.14c-11.63-7.01-15.36-20.43-15.77-26.17-3.11-44.13,58.68-68.4,77.22-21.96,14.72,36.87-29.75,67.23-61.45,48.13Z"/><path d="M663.52,411.15c-14.95,29.23-69.78,23.94-71.61-19-3.04-71.57,104.74-45.77,71.61,19Z"/><path d="M190.03,399.86v66.74c-8.19,4.05-18.88,4.47-31.84-1.3-40.83-18.16-5.33-82.77,31.84-65.44Z"/><path d="M514.04,566.55l-27.01-42.98-28.25-44.95,33.74-53.68,38.94-61.97,48.43-77.06h-112.73l-20.89,33.3-42.9,68.41-33.07,52.75-19.69,31.39c-3.55,5.09-3.55,9.66,0,13.71l15.35,24.47,73.29,116.89,27.91,44.5h111.37c.26-.29.53-.59.8-.88l-27.25-43.38-38.04-60.52ZM493.97,585.24c-.57.53.49-.91,0,0h0Z"/><rect x="231.03" y="125.19" width="97.5" height="546.14"/></svg>