<?xml version="1.0" encoding="UTF-8"?><svg id="b" xmlns="http://www.w3.org/2000/svg" viewBox="0 0 300 299.88"><g id="c"><rect width="300" height="299.88" style="fill:none;"/><g id="d"><path d="M245.27,33.55c-3.02.94-8.27,6.21-10.85,8.65-6,5.67-8.65,15.73-17.29,9.51-11.26-8.11-16.86-26.2-33.29-14.45-5.75,4.11-24.12,26.38-27.8,27.34-5,1.31-13.85-14.32-20-14.35-1.29,0-2.65.73-3.87,1.93,3.85,2.25,6.44,6.43,6.44,11.22v11.2c3.34,3.2,6.44,6.11,6.94,6.48,10.76,7.8,14.96,2.52,23.92-5.38,5.02-4.43,13.89-11.39,17.56-17.13,1.17-1.82,2.45-3.06,3.11-3.58,4.49-3.56,6.77-.06,10.53,4.03,4.04,4.39,4.18,11.1.29,15.63-6.71,7.81-13.15,14.88-7.71,26.67h11.97c4.73,0,9.08,2.57,11.36,6.7,2.17,3.92,2.15,8.66,0,12.55,1.44.4,2.95.6,4.5.61,1.43.01,2.84-.32,4.17-.86,2.51-1.02,5.01-2.06,7.36-3.54,3.14-1.98,38.13-37.97,40.97-41.86,13.78-18.86-4.09-48.88-28.34-41.37ZM258.72,67.96l-30.7,30.72c-3.35,3.35-8.46,4.54-12.76,2.57-5-2.28-7.57-7.8-3.2-14.05,4.28-6.12,23.17-24.77,29.45-30.61,10.14-9.42,18.96-10.22,20.55,1.61.48,3.59-.79,7.21-3.35,9.77Z"/><path d="M148.67,274.91c-9.51.49-23.81-24.17-30.46-24.83-5.55-.54-17.75,17.68-25.66,20.66-4.42,1.66-11.05,1.81-15.58.47-5.49-1.63-42.38-38.3-47.73-44.9-8.85-10.91-10.67-20.69-2.01-32.47,7.91-10.77,23.2-21.43,36.28-12.62l18.27,18.19v23.43c-.41-.47-.76-.85-.99-1.07-5.62-5.37-13.22-11.94-19.13-18.43-1.21-1.32-4.14-5.71-6.98-7.01-8.06-3.68-20.24,9.1-15.24,18.06l38.11,38.1c5.71,3.74,10.81,1.22,15.53-3.24.55.07,1.11.11,1.68.11h30.88c4.5,0,8.47-2.29,10.8-5.77,6.23,6.47,18.04,17.81,19.52,21.11,2.09,4.63-2.58,9.99-7.29,10.23Z"/><path d="M239.36,202.78c-5.07,7.46-15.52,15.87-24.74,24.1l-8.44-13.43c5.19-4.82,9.37-8.94,10.2-10.79,2.9-6.38-.66-14.33,6.34-18.63,6-3.68,9.19-3.94,14.84.02,6.29,4.41,5.85,12.75,1.79,18.73Z"/><path d="M266.77,230.09c-.58,2.52-12.12,13.84-14.69,16.52-4.67,4.87-22.96,23.75-27.91,26.37-7.19,3.82-15.96,4.04-23.28.58-1.76-.83-20.65-19.32-22.11-21.37-.74-1.04-1.3-1.98-1.7-2.84h22.76c3.78,5.11,11.95,12.22,15.51,9.27,9.66-5.36,35.91-39.96,45.15-39.05,4.26.42,7.2,6.54,6.28,10.52Z"/><path d="M88.74,41.3c-2.34,1.35-11.21-.21-14.96.24-9.35,1.14-27.59,26.46-35.34,32.96,1.28,10.41-1.99,25.83,0,35.53.6,2.94,23.87,19.57,24.22,26.73.29,5.73-4.44,10.08-10.15,8.76-1.68-.39-23.08-20.64-25.09-23.45-1.31-1.84-3.72-4.58-4.3-6.6-1.57-5.44-1.47-40.73.02-46.41.65-2.48,2.77-5.18,4.35-7.23,3.75-4.87,29.16-30.47,33.54-33.04,5.45-3.2,26.4-5.32,30.56-1.31,2.99,2.89-.83,12.65-2.84,13.81Z"/><path d="M178.03,209.1c-.18.17.16-.29,0,0h0Z"/><path d="M196.37,160.36c-1.77,8.03,1.89,21.87-.34,29.79-.25.87-1.08,2.11-2.27,3.54l-11.54-18.36,18.05-28.72c.33,1.34.52,2.93.51,4.8-.03,7.42-4.17,7.85-4.41,8.94Z"/><path d="M81.77,114.8v15.26c-2.78-.92-4.37-3.66-4.28-7.65.05-2.24,2.3-5.62,3.87-7.2l.41-.41Z"/><path d="M161.01,104.51c-.95.83-1.78,1.8-2.47,2.89l-9.94,15.85c-11.11-3.84-8.5-22.28,3.46-23.45,2.23-.22,6.62,3.71,8.95,4.7Z"/><path d="M123.12,43.89c-1.83,2.18-3.95,4.36-6.2,6.52h-22.17c-.37,0-.75.02-1.11.05.07-.09.15-.17.23-.26,7.8-8.23,15.46-17.04,24.17-24.52,1.89-1.63,4.45-2.3,6.89-1.75,11.81,2.69,4.55,12.39-1.81,19.95Z"/><path d="M255.92,159.86c-2.97-3.68-1.17-8.81-2.2-13.01-1.35-5.5-7.41-9.17-1.97-15.63,5.35-6.35,14.83.63,17.11,6.28,1.66,4.12,2.13,18.86-.24,22.17-3.02,4.2-9.51,4.16-12.7.2Z"/><path d="M58.1,92.21c-3.68-2.22-4.86-6.47-4.99-8.29-.98-13.98,18.58-21.66,24.46-6.95,4.66,11.68-9.42,21.29-19.46,15.24Z"/><path d="M231.73,153.97c-4.74,9.26-22.1,7.58-22.68-6.02-.96-22.67,33.17-14.5,22.68,6.02Z"/><path d="M81.77,150.39v21.14c-2.59,1.28-5.98,1.42-10.08-.41-12.93-5.75-1.69-26.21,10.08-20.73Z"/><path d="M184.39,203.18l-8.55-13.61-8.95-14.24,10.69-17,12.33-19.63,15.34-24.41h-35.7l-6.62,10.55-13.59,21.67-10.47,16.71-6.24,9.94c-1.12,1.61-1.12,3.06,0,4.34l4.86,7.75,23.21,37.02,8.84,14.09h35.27c.08-.09.17-.19.25-.28l-8.63-13.74-12.05-19.17ZM178.03,209.1c-.18.17.16-.29,0,0h0Z"/><rect x="94.76" y="63.4" width="30.88" height="172.97"/></g></g></svg>